<?xml version="1.0" encoding="UTF-8"?>
<svg version="1.1" xmlns="http://www.w3.org/2000/svg" width="1280" height="1280">
<path d="M0 0 C2.3203125 0.01953125 2.3203125 0.01953125 5 1 C6.59536917 3.26167041 7.72003653 5.20904783 8.875 7.6875 C9.21523193 8.3980957 9.55546387 9.10869141 9.90600586 9.84082031 C18.2080548 27.85269886 22.65926185 47.73866833 27 67 C27.22880859 67.98677734 27.45761719 68.97355469 27.69335938 69.99023438 C35.60874722 105.37810682 30.89714771 143.37374744 27 179 C28.59852066 176.00251921 30.19041899 173.00156794 31.78125 170 C32.22887695 169.16082031 32.67650391 168.32164062 33.13769531 167.45703125 C40.41620236 153.6998531 46.71364152 140.49408133 43.515625 124.75 C42.88884129 121.40715353 42.84607277 118.38639896 43 115 C45.64 115 48.28 115 51 115 C61.56484216 135.461552 59.76381297 157.20952258 58.28515625 179.53125 C58.21780273 180.54828506 58.15044922 181.56532013 58.08105469 182.61317444 C57.73854284 187.6979335 57.3745838 192.78010389 56.97998047 197.86108398 C54.78744256 227.24552999 54.98474378 264.83078452 74.49609375 289.10546875 C76.9415028 291.79796222 79.45661962 294.40057903 82 297 C83.01557577 298.21632913 84.01935586 299.44283628 85 300.6875 C85.66 301.450625 86.32 302.21375 87 303 C87.66 303 88.32 303 89 303 C89.26514404 302.47905762 89.53028809 301.95811523 89.8034668 301.42138672 C97.02396512 287.2942579 104.79639881 273.57830659 113 260 C134.80921726 260.32998816 155.64456162 266.03536817 176.625 271.5 C177.52274139 271.73297791 178.42048279 271.96595581 179.34542847 272.20599365 C190.37956805 275.0817889 201.23807289 278.22215999 212 282 C211.99555878 281.43275711 211.99111755 280.86551422 211.98654175 280.28108215 C211.94154317 274.26024962 211.9118245 268.23946639 211.89013672 262.21850586 C211.88021257 259.98541314 211.86666894 257.75233293 211.84912109 255.51928711 C211.70788257 237.05442653 212.44253082 218.83105838 215.75 200.625 C215.91991455 199.67915039 216.0898291 198.73330078 216.26489258 197.75878906 C222.5293681 164.20405079 233.62185584 130.99493356 251.78417969 101.97705078 C253.02802423 99.95442968 254.20824246 97.90334314 255.3828125 95.83984375 C256.14998489 94.53843896 256.91816809 93.23762935 257.6875 91.9375 C258.01951416 91.33486328 258.35152832 90.73222656 258.69360352 90.11132812 C259.69921875 88.46484375 259.69921875 88.46484375 262 86 C265.76953125 85.62890625 265.76953125 85.62890625 269 86 C269.47745406 93.01363552 267.79087788 98.21336669 265.375 104.75 C253.23926812 139.19912061 251.01916216 173.18448981 258 209 C258.15533203 209.80002441 258.31066406 210.60004883 258.47070312 211.42431641 C261.10885092 224.22390142 265.93894109 236.43734806 270.31661987 248.71572876 C275.73196964 263.93226256 280.72178042 279.02022681 283.07421875 295.0546875 C285.16181952 309.09973072 287.33776363 319.5063498 296.67480469 330.43457031 C298.5682411 332.67125312 300.24298174 335.04815835 301.9375 337.4375 C304.61303701 341.110775 304.61303701 341.110775 307.31494141 344.76464844 C316.09720961 356.58079111 323.17050304 368.9745489 330 382 C330.91672687 383.72722221 331.8346523 385.45380892 332.75390625 387.1796875 C334.84732914 391.11387191 336.92786225 395.054566 339 399 C339.25056152 398.50298584 339.50112305 398.00597168 339.75927734 397.49389648 C347.14463829 382.93251021 355.58858405 369.69932469 365.109375 356.47265625 C401.68496855 305.47128511 427.91624887 245.87744 444.625 185.5 C444.86057617 184.65348877 445.09615234 183.80697754 445.33886719 182.93481445 C446.5851768 178.23729604 447.36830464 173.67569456 447.76708984 168.83007812 C448 167 448 167 449 165 C451.64 165 454.28 165 457 165 C458.8098243 180.85863077 460.29833083 196.7472554 461.27838135 212.67965698 C461.38263419 214.32276902 461.49555812 215.96535912 461.61810303 217.60720825 C462.83327532 234.14728959 460.02557422 248.98446123 453.8046875 264.3359375 C451.5101393 270.15619193 449.52109709 276.08049582 447.5 282 C444.60020814 290.48283992 441.67204276 298.95326381 438.6640625 307.3984375 C427.17789662 339.69204339 417.28380292 372.34910505 407.74499893 405.26522446 C407.19988936 407.14478107 406.65323105 409.0238883 406.10653687 410.90298462 C402.22997757 424.2502799 398.50415277 437.62283298 395.109375 451.1015625 C394.82325851 452.23204514 394.53714203 453.36252777 394.24235535 454.52726746 C385.33387022 490.4823479 389.60985922 525.18577194 396.64038086 561.02685547 C406.98772514 614.67184344 410.21299336 668.81063387 408.25537109 723.32568359 C408.12409585 727.02548213 408.00510665 730.72555042 407.88671875 734.42578125 C407.5380206 744.78953424 407.16163745 755.15949709 406.2109375 765.48828125 C406.13107101 766.56233215 406.13107101 766.56233215 406.04959106 767.65808105 C405.67829537 771.1225107 405.14393359 772.835486 402.82470703 775.48632812 C400.31478539 777.32303617 397.77127966 778.58286836 395 780 C393.41489211 781.08262312 391.84330716 782.18515709 390.28125 783.30078125 C385.33398947 786.81427279 380.24241341 789.94981532 375 793 C374.05850098 793.55123535 373.11700195 794.1024707 372.14697266 794.67041016 C370.1347696 795.8466382 368.12122781 797.02057862 366.10644531 798.19238281 C362.99174134 800.00480565 359.88255587 801.82645336 356.7734375 803.6484375 C314.76007957 828.17749417 271.6447833 849.3757115 225.4375 864.75 C224.69082062 864.99879913 223.94414124 865.24759827 223.17483521 865.50393677 C199.04810565 873.49575487 199.04810565 873.49575487 191 873 C181.14969003 865.41563586 174.10922079 851.88305592 168.0625 841.25 C166.84888406 839.13210845 165.63404173 837.01491919 164.41796875 834.8984375 C163.8357959 833.88491211 163.25362305 832.87138672 162.65380859 831.82714844 C161.22587097 829.38612133 159.75784652 826.98614581 158.23828125 824.6015625 C153.27710357 816.80882063 147.51605916 807.57002424 148.13110352 797.94921875 C149 796 149 796 151.33813477 794.83081055 C152.36221436 794.51926025 153.38629395 794.20770996 154.44140625 793.88671875 C155.57489502 793.52956787 156.70838379 793.17241699 157.8762207 792.80444336 C159.09269287 792.43585205 160.30916504 792.06726074 161.5625 791.6875 C178.51510104 786.29001522 194.13118089 779.91254607 209 770 C205.42287195 766.13277739 203.05761986 764.67067147 197.75315857 764.34057617 C195.61759957 764.29925028 193.48140417 764.28534032 191.34545898 764.29296875 C189.58612754 764.27021881 189.58612754 764.27021881 187.79125404 764.24700928 C184.56075102 764.21068589 181.33107861 764.19671072 178.10040212 764.19291306 C174.63152235 764.18371668 171.1629188 764.14646181 167.69419861 764.11352539 C159.53735763 764.04260908 151.38068337 764.01920918 143.22357464 764.00448608 C140.32996808 763.9986482 137.43637407 763.98986923 134.54277539 763.98102331 C115.41565841 763.92329121 96.28892234 763.94696225 77.16179872 763.98651457 C61.50241764 764.01803182 45.84300279 764.0266126 30.18359375 764.03125 C28.93070431 764.03168147 28.93070431 764.03168147 27.65250397 764.03212166 C-16.10223907 764.04580586 -59.8534641 763.71685243 -103.60614491 763.31956482 C-109.96825929 763.2624232 -116.33035237 763.20946501 -122.69258118 763.16674805 C-123.91604657 763.15852524 -125.13951197 763.15030243 -126.40005207 763.14183044 C-128.85524495 763.125446 -131.31043944 763.1093009 -133.76563549 763.09339905 C-140.89990269 763.04310981 -148.03285225 762.96137556 -155.16635501 762.84962034 C-161.18220084 762.75636873 -167.19801404 762.69237775 -173.21434402 762.63722229 C-175.74132242 762.6085003 -178.26820506 762.56917601 -180.79484177 762.5186615 C-184.26670526 762.45039791 -187.73705575 762.41912625 -191.20947266 762.39648438 C-192.23458576 762.36710785 -193.25969887 762.33773132 -194.31587601 762.3074646 C-199.38693222 762.19894986 -199.38693222 762.19894986 -203.77448654 764.37678528 C-205.3582203 766.17295258 -205.3582203 766.17295258 -207 769 C-191.0457494 778.58767031 -174.92624243 787.67057658 -157 793 C-155.24800235 793.57730582 -153.49782347 794.16017722 -151.75 794.75 C-149.89375 795.36875 -149.89375 795.36875 -148 796 C-146.96133181 818.57866809 -168.9320013 848.71741709 -183.4375 865.25 C-185.13402198 867.07756856 -186.83593957 868.84713428 -188.66015625 870.546875 C-190.25309526 872.07495489 -190.25309526 872.07495489 -191 875 C-197.84311529 877.28103843 -204.02410259 875.46722383 -210.6875 873.5 C-211.61103271 873.23010254 -212.53456543 872.96020508 -213.48608398 872.68212891 C-223.25799971 869.74314429 -232.61941329 865.99484159 -242 862 C-243.07733398 861.54286621 -244.15466797 861.08573242 -245.26464844 860.61474609 C-252.41380864 857.57620243 -259.54910514 854.50633963 -266.68066406 851.42675781 C-269.66474057 850.14410533 -272.65429653 848.87612433 -275.6484375 847.6171875 C-291.82912459 840.80164944 -308.1936104 833.86062371 -323.18237305 824.65527344 C-325.92944142 823.0414511 -328.70644083 821.63206795 -331.57421875 820.24609375 C-337.94776901 817.08544973 -344.04181862 813.5586803 -350.125 809.875 C-351.75514038 808.88995483 -351.75514038 808.88995483 -353.41821289 807.88500977 C-366.35648195 800.01829041 -378.87053023 791.80033827 -390.875 782.5625 C-391.63095459 781.98298584 -392.38690918 781.40347168 -393.16577148 780.80639648 C-396.97855452 777.81614055 -400.10372563 774.92680921 -403 771 C-403.51079102 770.59483154 -404.02158203 770.18966309 -404.54785156 769.7722168 C-406.71858579 767.12303056 -406.62383656 764.75014771 -406.9140625 761.3671875 C-406.97380753 760.70709183 -407.03355255 760.04699615 -407.09510803 759.36689758 C-407.28623897 757.20389597 -407.45653991 755.03987689 -407.625 752.875 C-407.75066246 751.36756138 -407.87672393 749.86015597 -408.00317383 748.3527832 C-409.04934776 735.57929977 -409.73802546 722.8144135 -410 710 C-410.02723145 708.95231445 -410.05446289 707.90462891 -410.08251953 706.82519531 C-411.06331242 665.70591629 -405.22625067 624.59559512 -399.25463867 584.00488281 C-396.81761231 567.38075521 -395.78408976 550.77027749 -395 534 C-394.34 534 -393.68 534 -393 534 C-395.57264516 476.74295831 -403.36603233 417.93614924 -422.19140625 363.55859375 C-423.12555474 360.60271325 -423.14672591 358.0812442 -423 355 C-420.1875 354.8125 -420.1875 354.8125 -417 355 C-415.98369895 355.98342878 -414.9850025 356.98522413 -414 358 C-412.10835089 358.96314313 -412.10835089 358.96314313 -410 359.75 C-400.07138219 363.98590194 -392.11932436 370.19792583 -384.625 377.875 C-383.39801392 379.12120117 -383.39801392 379.12120117 -382.14624023 380.39257812 C-350 413.60267802 -350 413.60267802 -350 426 C-349.34 426 -348.68 426 -348 426 C-347.87705566 424.98284912 -347.75411133 423.96569824 -347.62744141 422.91772461 C-347.03174499 419.19821472 -346.13994933 415.88817911 -344.9609375 412.31640625 C-344.54908203 411.06690186 -344.13722656 409.81739746 -343.71289062 408.5300293 C-343.26797163 407.20716776 -342.82198769 405.88466397 -342.375 404.5625 C-342.14868896 403.88982086 -341.92237793 403.21714172 -341.68920898 402.52407837 C-333.55127045 378.40742257 -321.57500796 358.16961368 -307.67041016 336.97314453 C-275.93179906 288.39896087 -264.0068942 220.79195826 -271.53515625 163.8046875 C-271.92137728 160.64351709 -272.10661518 157.67629332 -272.0625 154.5 C-272.05347656 153.6440625 -272.04445313 152.788125 -272.03515625 151.90625 C-272.01775391 150.96265625 -272.01775391 150.96265625 -272 150 C-269.71191406 149.73608398 -269.71191406 149.73608398 -267 150 C-234.86719901 181.55617127 -225.83630832 242.68787397 -221 285 C-201.32211674 257.41374758 -187.5351248 227.9670948 -179.5 195 C-175.52960839 178.74556577 -171.00775588 163.73616615 -163 149 C-160.36 149 -157.72 149 -155 149 C-154.80096241 155.44624979 -155.44435953 160.99727253 -156.9375 167.25 C-162.56622697 192.78109331 -155.68668492 212.54337709 -146.9921875 236.55859375 C-146.36858204 238.28862696 -145.74614311 240.0190812 -145.125 241.75 C-144.83189941 242.5661377 -144.53879883 243.38227539 -144.23681641 244.22314453 C-142.30374765 249.74960741 -140.99035378 255.1499657 -140.2890625 260.98046875 C-140.20703318 262.9928946 -140.20703318 262.9928946 -139 264 C-136.97242513 263.73473833 -134.95259479 263.41008681 -132.9375 263.0625 C-111.94291639 260.03257545 -111.94291639 260.03257545 -106.90234375 263.40234375 C-105.28510554 265.51122238 -104.17517931 267.61627666 -103 270 C-101.72280748 272.00927401 -100.43075728 274.00917085 -99.125 276 C-98.0800825 277.66463048 -97.03724948 279.33058072 -96 281 C-95.38253906 280.18917969 -94.76507812 279.37835938 -94.12890625 278.54296875 C-88.08652575 270.63287772 -81.89388056 262.87007501 -75.51904297 255.22363281 C-63.64043292 240.96344742 -53.25243972 226.08635694 -44 210 C-43.60458008 209.31744141 -43.20916016 208.63488281 -42.80175781 207.93164062 C-23.23878663 174.01835354 -8.10489673 136.79859718 -2 98 C-1.77570313 96.69409912 -1.77570313 96.69409912 -1.546875 95.36181641 C3.53503673 65.2372513 2.10755616 33.27525912 -0.92993164 2.9855957 C-0.96461548 2.00272583 -0.96461548 2.00272583 -1 1 C-0.67 0.67 -0.34 0.34 0 0 Z " fill="#3A3A3A" transform="translate(639,232)"/>
<path d="M0 0 C2.3203125 0.01953125 2.3203125 0.01953125 5 1 C6.59536917 3.26167041 7.72003653 5.20904783 8.875 7.6875 C9.21523193 8.3980957 9.55546387 9.10869141 9.90600586 9.84082031 C18.2080548 27.85269886 22.65926185 47.73866833 27 67 C27.22880859 67.98677734 27.45761719 68.97355469 27.69335938 69.99023438 C35.60874722 105.37810682 30.89714771 143.37374744 27 179 C28.59852066 176.00251921 30.19041899 173.00156794 31.78125 170 C32.22887695 169.16082031 32.67650391 168.32164062 33.13769531 167.45703125 C40.41620236 153.6998531 46.71364152 140.49408133 43.515625 124.75 C42.88884129 121.40715353 42.84607277 118.38639896 43 115 C45.64 115 48.28 115 51 115 C61.56484216 135.461552 59.76381297 157.20952258 58.28515625 179.53125 C58.21780273 180.54828506 58.15044922 181.56532013 58.08105469 182.61317444 C57.73854284 187.6979335 57.3745838 192.78010389 56.97998047 197.86108398 C54.78744256 227.24552999 54.98474378 264.83078452 74.49609375 289.10546875 C76.9415028 291.79796222 79.45661962 294.40057903 82 297 C83.01557577 298.21632913 84.01935586 299.44283628 85 300.6875 C85.66 301.450625 86.32 302.21375 87 303 C87.66 303 88.32 303 89 303 C89.26514404 302.47905762 89.53028809 301.95811523 89.8034668 301.42138672 C97.02396512 287.2942579 104.79639881 273.57830659 113 260 C134.80921726 260.32998816 155.64456162 266.03536817 176.625 271.5 C177.52274139 271.73297791 178.42048279 271.96595581 179.34542847 272.20599365 C190.37956805 275.0817889 201.23807289 278.22215999 212 282 C211.99555878 281.43275711 211.99111755 280.86551422 211.98654175 280.28108215 C211.94154317 274.26024962 211.9118245 268.23946639 211.89013672 262.21850586 C211.88021257 259.98541314 211.86666894 257.75233293 211.84912109 255.51928711 C211.70788257 237.05442653 212.44253082 218.83105838 215.75 200.625 C215.91991455 199.67915039 216.0898291 198.73330078 216.26489258 197.75878906 C222.5293681 164.20405079 233.62185584 130.99493356 251.78417969 101.97705078 C253.02802423 99.95442968 254.20824246 97.90334314 255.3828125 95.83984375 C256.14998489 94.53843896 256.91816809 93.23762935 257.6875 91.9375 C258.01951416 91.33486328 258.35152832 90.73222656 258.69360352 90.11132812 C259.69921875 88.46484375 259.69921875 88.46484375 262 86 C265.76953125 85.62890625 265.76953125 85.62890625 269 86 C269.47745406 93.01363552 267.79087788 98.21336669 265.375 104.75 C253.23926812 139.19912061 251.01916216 173.18448981 258 209 C258.15533203 209.80002441 258.31066406 210.60004883 258.47070312 211.42431641 C261.10885092 224.22390142 265.93894109 236.43734806 270.31661987 248.71572876 C275.73196964 263.93226256 280.72178042 279.02022681 283.07421875 295.0546875 C285.16181952 309.09973072 287.33776363 319.5063498 296.67480469 330.43457031 C298.5682411 332.67125312 300.24298174 335.04815835 301.9375 337.4375 C304.61303701 341.110775 304.61303701 341.110775 307.31494141 344.76464844 C316.09720961 356.58079111 323.17050304 368.9745489 330 382 C330.91672687 383.72722221 331.8346523 385.45380892 332.75390625 387.1796875 C334.84732914 391.11387191 336.92786225 395.054566 339 399 C339.25056152 398.50298584 339.50112305 398.00597168 339.75927734 397.49389648 C347.14463829 382.93251021 355.58858405 369.69932469 365.109375 356.47265625 C401.68496855 305.47128511 427.91624887 245.87744 444.625 185.5 C444.86057617 184.65348877 445.09615234 183.80697754 445.33886719 182.93481445 C446.5851768 178.23729604 447.36830464 173.67569456 447.76708984 168.83007812 C448 167 448 167 449 165 C451.64 165 454.28 165 457 165 C458.8098243 180.85863077 460.29833083 196.7472554 461.27838135 212.67965698 C461.38263419 214.32276902 461.49555812 215.96535912 461.61810303 217.60720825 C462.83327532 234.14728959 460.02557422 248.98446123 453.8046875 264.3359375 C451.5101393 270.15619193 449.52109709 276.08049582 447.5 282 C444.60020814 290.48283992 441.67204276 298.95326381 438.6640625 307.3984375 C427.17789662 339.69204339 417.28380292 372.34910505 407.74499893 405.26522446 C407.19988936 407.14478107 406.65323105 409.0238883 406.10653687 410.90298462 C402.22997757 424.2502799 398.50415277 437.62283298 395.109375 451.1015625 C394.82325851 452.23204514 394.53714203 453.36252777 394.24235535 454.52726746 C385.33387022 490.4823479 389.60985922 525.18577194 396.64038086 561.02685547 C406.98772514 614.67184344 410.21299336 668.81063387 408.25537109 723.32568359 C408.12409585 727.02548213 408.00510665 730.72555042 407.88671875 734.42578125 C407.5380206 744.78953424 407.16163745 755.15949709 406.2109375 765.48828125 C406.13107101 766.56233215 406.13107101 766.56233215 406.04959106 767.65808105 C405.67829537 771.1225107 405.14393359 772.835486 402.82470703 775.48632812 C400.31478539 777.32303617 397.77127966 778.58286836 395 780 C393.41489211 781.08262312 391.84330716 782.18515709 390.28125 783.30078125 C385.33398947 786.81427279 380.24241341 789.94981532 375 793 C374.05850098 793.55123535 373.11700195 794.1024707 372.14697266 794.67041016 C370.1347696 795.8466382 368.12122781 797.02057862 366.10644531 798.19238281 C362.99174134 800.00480565 359.88255587 801.82645336 356.7734375 803.6484375 C314.76007957 828.17749417 271.6447833 849.3757115 225.4375 864.75 C224.69082062 864.99879913 223.94414124 865.24759827 223.17483521 865.50393677 C199.04810565 873.49575487 199.04810565 873.49575487 191 873 C181.14969003 865.41563586 174.10922079 851.88305592 168.0625 841.25 C166.84888406 839.13210845 165.63404173 837.01491919 164.41796875 834.8984375 C163.8357959 833.88491211 163.25362305 832.87138672 162.65380859 831.82714844 C161.22587097 829.38612133 159.75784652 826.98614581 158.23828125 824.6015625 C153.27710357 816.80882063 147.51605916 807.57002424 148.13110352 797.94921875 C149 796 149 796 151.33813477 794.83081055 C152.36221436 794.51926025 153.38629395 794.20770996 154.44140625 793.88671875 C155.57489502 793.52956787 156.70838379 793.17241699 157.8762207 792.80444336 C159.09269287 792.43585205 160.30916504 792.06726074 161.5625 791.6875 C178.51510104 786.29001522 194.13118089 779.91254607 209 770 C205.42287195 766.13277739 203.05761986 764.67067147 197.75315857 764.34057617 C195.61759957 764.29925028 193.48140417 764.28534032 191.34545898 764.29296875 C189.58612754 764.27021881 189.58612754 764.27021881 187.79125404 764.24700928 C184.56075102 764.21068589 181.33107861 764.19671072 178.10040212 764.19291306 C174.63152235 764.18371668 171.1629188 764.14646181 167.69419861 764.11352539 C159.53735763 764.04260908 151.38068337 764.01920918 143.22357464 764.00448608 C140.32996808 763.9986482 137.43637407 763.98986923 134.54277539 763.98102331 C115.41565841 763.92329121 96.28892234 763.94696225 77.16179872 763.98651457 C61.50241764 764.01803182 45.84300279 764.0266126 30.18359375 764.03125 C28.93070431 764.03168147 28.93070431 764.03168147 27.65250397 764.03212166 C-16.10223907 764.04580586 -59.8534641 763.71685243 -103.60614491 763.31956482 C-109.96825929 763.2624232 -116.33035237 763.20946501 -122.69258118 763.16674805 C-123.91604657 763.15852524 -125.13951197 763.15030243 -126.40005207 763.14183044 C-128.85524495 763.125446 -131.31043944 763.1093009 -133.76563549 763.09339905 C-140.89990269 763.04310981 -148.03285225 762.96137556 -155.16635501 762.84962034 C-161.18220084 762.75636873 -167.19801404 762.69237775 -173.21434402 762.63722229 C-175.74132242 762.6085003 -178.26820506 762.56917601 -180.79484177 762.5186615 C-184.26670526 762.45039791 -187.73705575 762.41912625 -191.20947266 762.39648438 C-192.23458576 762.36710785 -193.25969887 762.33773132 -194.31587601 762.3074646 C-199.38693222 762.19894986 -199.38693222 762.19894986 -203.77448654 764.37678528 C-205.3582203 766.17295258 -205.3582203 766.17295258 -207 769 C-191.0457494 778.58767031 -174.92624243 787.67057658 -157 793 C-155.24800235 793.57730582 -153.49782347 794.16017722 -151.75 794.75 C-149.89375 795.36875 -149.89375 795.36875 -148 796 C-146.96133181 818.57866809 -168.9320013 848.71741709 -183.4375 865.25 C-185.13402198 867.07756856 -186.83593957 868.84713428 -188.66015625 870.546875 C-190.25309526 872.07495489 -190.25309526 872.07495489 -191 875 C-197.84311529 877.28103843 -204.02410259 875.46722383 -210.6875 873.5 C-211.61103271 873.23010254 -212.53456543 872.96020508 -213.48608398 872.68212891 C-223.25799971 869.74314429 -232.61941329 865.99484159 -242 862 C-243.07733398 861.54286621 -244.15466797 861.08573242 -245.26464844 860.61474609 C-252.41380864 857.57620243 -259.54910514 854.50633963 -266.68066406 851.42675781 C-269.66474057 850.14410533 -272.65429653 848.87612433 -275.6484375 847.6171875 C-291.82912459 840.80164944 -308.1936104 833.86062371 -323.18237305 824.65527344 C-325.92944142 823.0414511 -328.70644083 821.63206795 -331.57421875 820.24609375 C-337.94776901 817.08544973 -344.04181862 813.5586803 -350.125 809.875 C-351.75514038 808.88995483 -351.75514038 808.88995483 -353.41821289 807.88500977 C-366.35648195 800.01829041 -378.87053023 791.80033827 -390.875 782.5625 C-391.63095459 781.98298584 -392.38690918 781.40347168 -393.16577148 780.80639648 C-396.97855452 777.81614055 -400.10372563 774.92680921 -403 771 C-403.51079102 770.59483154 -404.02158203 770.18966309 -404.54785156 769.7722168 C-406.71858579 767.12303056 -406.62383656 764.75014771 -406.9140625 761.3671875 C-406.97380753 760.70709183 -407.03355255 760.04699615 -407.09510803 759.36689758 C-407.28623897 757.20389597 -407.45653991 755.03987689 -407.625 752.875 C-407.75066246 751.36756138 -407.87672393 749.86015597 -408.00317383 748.3527832 C-409.04934776 735.57929977 -409.73802546 722.8144135 -410 710 C-410.02723145 708.95231445 -410.05446289 707.90462891 -410.08251953 706.82519531 C-411.06331242 665.70591629 -405.22625067 624.59559512 -399.25463867 584.00488281 C-396.81761231 567.38075521 -395.78408976 550.77027749 -395 534 C-394.34 534 -393.68 534 -393 534 C-395.57264516 476.74295831 -403.36603233 417.93614924 -422.19140625 363.55859375 C-423.12555474 360.60271325 -423.14672591 358.0812442 -423 355 C-420.1875 354.8125 -420.1875 354.8125 -417 355 C-415.98369895 355.98342878 -414.9850025 356.98522413 -414 358 C-412.10835089 358.96314313 -412.10835089 358.96314313 -410 359.75 C-400.07138219 363.98590194 -392.11932436 370.19792583 -384.625 377.875 C-383.39801392 379.12120117 -383.39801392 379.12120117 -382.14624023 380.39257812 C-350 413.60267802 -350 413.60267802 -350 426 C-349.34 426 -348.68 426 -348 426 C-347.87705566 424.98284912 -347.75411133 423.96569824 -347.62744141 422.91772461 C-347.03174499 419.19821472 -346.13994933 415.88817911 -344.9609375 412.31640625 C-344.54908203 411.06690186 -344.13722656 409.81739746 -343.71289062 408.5300293 C-343.26797163 407.20716776 -342.82198769 405.88466397 -342.375 404.5625 C-342.14868896 403.88982086 -341.92237793 403.21714172 -341.68920898 402.52407837 C-333.55127045 378.40742257 -321.57500796 358.16961368 -307.67041016 336.97314453 C-275.93179906 288.39896087 -264.0068942 220.79195826 -271.53515625 163.8046875 C-271.92137728 160.64351709 -272.10661518 157.67629332 -272.0625 154.5 C-272.05347656 153.6440625 -272.04445313 152.788125 -272.03515625 151.90625 C-272.01775391 150.96265625 -272.01775391 150.96265625 -272 150 C-269.71191406 149.73608398 -269.71191406 149.73608398 -267 150 C-234.86719901 181.55617127 -225.83630832 242.68787397 -221 285 C-201.32211674 257.41374758 -187.5351248 227.9670948 -179.5 195 C-175.52960839 178.74556577 -171.00775588 163.73616615 -163 149 C-160.36 149 -157.72 149 -155 149 C-154.80096241 155.44624979 -155.44435953 160.99727253 -156.9375 167.25 C-162.56622697 192.78109331 -155.68668492 212.54337709 -146.9921875 236.55859375 C-146.36858204 238.28862696 -145.74614311 240.0190812 -145.125 241.75 C-144.83189941 242.5661377 -144.53879883 243.38227539 -144.23681641 244.22314453 C-142.30374765 249.74960741 -140.99035378 255.1499657 -140.2890625 260.98046875 C-140.20703318 262.9928946 -140.20703318 262.9928946 -139 264 C-136.97242513 263.73473833 -134.95259479 263.41008681 -132.9375 263.0625 C-111.94291639 260.03257545 -111.94291639 260.03257545 -106.90234375 263.40234375 C-105.28510554 265.51122238 -104.17517931 267.61627666 -103 270 C-101.72280748 272.00927401 -100.43075728 274.00917085 -99.125 276 C-98.0800825 277.66463048 -97.03724948 279.33058072 -96 281 C-95.38253906 280.18917969 -94.76507812 279.37835938 -94.12890625 278.54296875 C-88.08652575 270.63287772 -81.89388056 262.87007501 -75.51904297 255.22363281 C-63.64043292 240.96344742 -53.25243972 226.08635694 -44 210 C-43.60458008 209.31744141 -43.20916016 208.63488281 -42.80175781 207.93164062 C-23.23878663 174.01835354 -8.10489673 136.79859718 -2 98 C-1.77570313 96.69409912 -1.77570313 96.69409912 -1.546875 95.36181641 C3.53503673 65.2372513 2.10755616 33.27525912 -0.92993164 2.9855957 C-0.96461548 2.00272583 -0.96461548 2.00272583 -1 1 C-0.67 0.67 -0.34 0.34 0 0 Z M9 33 C8.98541748 34.13614746 8.97083496 35.27229492 8.95581055 36.44287109 C8.35419121 79.95749736 8.35419121 79.95749736 5 101 C4.784646 102.44560303 4.784646 102.44560303 4.56494141 103.92041016 C-4.56842868 163.43048745 -35.13680081 219.11241793 -73 265 C-82.73526071 276.72251089 -82.73526071 276.72251089 -91.6328125 289.08203125 C-94.15231659 292.61653555 -94.15231659 292.61653555 -96 294 C-97.97753906 293.78076172 -97.97753906 293.78076172 -100 293 C-101.46525281 290.48178211 -102.68636862 288.08060592 -103.875 285.4375 C-104.57700303 283.97543964 -105.28400561 282.51576883 -105.99609375 281.05859375 C-106.33882324 280.35718262 -106.68155273 279.65577148 -107.03466797 278.93310547 C-108.92438507 275.148892 -110.68468833 271.69565394 -114 269 C-120.74373834 267.79228011 -127.98542197 269.73012804 -134.6015625 271.02148438 C-135.35695313 271.16005859 -136.11234375 271.29863281 -136.890625 271.44140625 C-137.56125977 271.57232666 -138.23189453 271.70324707 -138.92285156 271.83813477 C-141.43614569 272.03398738 -143.55841338 271.58222859 -146 271 C-146.13535156 270.00701904 -146.27070313 269.01403809 -146.41015625 267.9909668 C-148.19689472 256.02332923 -151.80871483 245.13003916 -156 233.8125 C-161.14066286 219.84484691 -165.36686212 206.47020117 -167.1875 191.625 C-167.34605469 190.35914063 -167.50460937 189.09328125 -167.66796875 187.7890625 C-167.77753906 186.86867188 -167.88710938 185.94828125 -168 185 C-170.6596569 187.6596569 -170.84685665 189.83220299 -171.69921875 193.4921875 C-172.02043987 194.84115821 -172.34207098 196.19003133 -172.6640625 197.53881836 C-172.83067383 198.24682587 -172.99728516 198.95483337 -173.16894531 199.68429565 C-180.64769754 231.27929498 -192.77297255 258.73656992 -211.0625 285.625 C-211.90300903 286.8612915 -211.90300903 286.8612915 -212.76049805 288.12255859 C-216.74203916 293.87101958 -216.74203916 293.87101958 -219 295 C-220.54023996 295.06950541 -222.08334988 295.08452357 -223.625 295.0625 C-224.44226563 295.05347656 -225.25953125 295.04445313 -226.1015625 295.03515625 C-227.04128906 295.01775391 -227.04128906 295.01775391 -228 295 C-228.03963867 294.39865234 -228.07927734 293.79730469 -228.12011719 293.17773438 C-231.09705333 249.65854636 -242.22802553 211.80638183 -262 173 C-262.33 173 -262.66 173 -263 173 C-263.01458252 174.25208252 -263.02916504 175.50416504 -263.04418945 176.79418945 C-263.58230404 219.64356656 -267.28356004 259.06926881 -281 300 C-281.44279297 301.33611328 -281.44279297 301.33611328 -281.89453125 302.69921875 C-286.75777978 317.20013787 -292.98560566 330.86881025 -302.06640625 343.2421875 C-306.23290647 349.18471104 -309.87195557 355.47825505 -313.60351562 361.69921875 C-314.90195533 363.83846627 -316.23292211 365.9524591 -317.578125 368.0625 C-331.65663738 390.48964175 -342.11353721 418.47402324 -344 445 C-345.32 445.33 -346.64 445.66 -348 446 C-348.27980713 445.26821533 -348.55961426 444.53643066 -348.84790039 443.7824707 C-356.41117655 425.51617309 -369.02778427 407.82538941 -382 393 C-382.48194824 392.44570313 -382.96389648 391.89140625 -383.46044922 391.3203125 C-395.84931659 377.16307149 -395.84931659 377.16307149 -412 368 C-411.78085937 368.86496094 -411.56171875 369.72992187 -411.3359375 370.62109375 C-410.42959506 374.22067327 -409.53388725 377.82270055 -408.64160156 381.42578125 C-408.21554685 383.13518799 -407.78523945 384.84354068 -407.35058594 386.55078125 C-398.24067836 422.35391145 -391.10641631 459.16315047 -388 496 C-387.94215332 496.67546875 -387.88430664 497.3509375 -387.82470703 498.046875 C-387.05259247 507.50470555 -386.9032795 516.95039957 -386.875 526.4375 C-386.86799072 528.10159912 -386.86799072 528.10159912 -386.86083984 529.79931641 C-386.86398193 531.35078369 -386.86398193 531.35078369 -386.8671875 532.93359375 C-386.86831543 533.86228271 -386.86944336 534.79097168 -386.87060547 535.74780273 C-387 538 -387 538 -388 540 C-388.24982899 542.51103435 -388.44908402 545.00653148 -388.61328125 547.5234375 C-388.72547272 549.10469194 -388.83820727 550.68590791 -388.95141602 552.26708984 C-389.00999786 553.10052917 -389.06857971 553.93396851 -389.12893677 554.79266357 C-390.27428043 570.90516397 -392.02509042 586.76565009 -394.51611328 602.73095703 C-395.36302341 608.45251437 -396.05301939 614.19353305 -396.74899292 619.93499756 C-396.9963819 621.97023433 -397.24772948 624.00494417 -397.50024414 626.03955078 C-402.26220575 664.50977344 -404.5860216 702.04190039 -401.23388672 740.73925781 C-401.00991688 743.86174338 -400.92053158 746.95632921 -400.87890625 750.0859375 C-400.85073817 759.89566139 -400.85073817 759.89566139 -396.5078125 768.34375 C-393.85627949 770.84640127 -390.94711238 772.84658507 -387.87060547 774.79052734 C-385.99352645 776.00418558 -384.23844091 777.30610637 -382.47265625 778.67578125 C-365.20351134 792.0174319 -345.9837081 803.065874 -326.83007812 813.45556641 C-324.12990814 814.92910638 -321.44636029 816.42895888 -318.765625 817.9375 C-302.60323509 826.95905219 -285.96226838 834.64258209 -269 842 C-268.19344971 842.35012146 -267.38689941 842.70024292 -266.5559082 843.06097412 C-260.4612635 845.70367702 -254.35781458 848.32539799 -248.25 850.9375 C-247.01576294 851.46712341 -247.01576294 851.46712341 -245.7565918 852.00744629 C-236.84136784 855.82589732 -227.88862697 859.4993323 -218.796875 862.87890625 C-218.03199768 863.16499252 -217.26712036 863.4510788 -216.47906494 863.74583435 C-206.44938056 867.6263094 -206.44938056 867.6263094 -196 868 C-193.90965176 865.993142 -192.40889114 864.26062256 -190.75 861.9375 C-190.27892822 861.30553711 -189.80785645 860.67357422 -189.32250977 860.02246094 C-187.85552179 858.03244279 -186.42371462 856.02115312 -185 854 C-184.56606934 853.3910791 -184.13213867 852.7821582 -183.68505859 852.15478516 C-174.74236287 839.51095062 -167.41375913 825.92932454 -160.4375 812.125 C-160.10282715 811.46508057 -159.7681543 810.80516113 -159.42333984 810.12524414 C-157.93624088 807.13029418 -156.60590768 804.30344187 -156 801 C-156.62261719 800.88785156 -157.24523437 800.77570312 -157.88671875 800.66015625 C-172.98384939 797.43859281 -187.02764553 790.37958791 -200.375 782.8125 C-201.23601318 782.32595947 -202.09702637 781.83941895 -202.98413086 781.33813477 C-216.14957192 773.66467464 -216.14957192 773.66467464 -217.9375 768.0625 C-216.65882633 763.88549935 -214.22655062 762.1615317 -210.84765625 759.515625 C-208.88998412 758.11988588 -208.88998412 758.11988588 -208 756 C-170.45654374 756.10630189 -132.91310026 756.21640198 -95.36966873 756.33111694 C-90.86599343 756.34487501 -86.36231803 756.35860382 -81.85864258 756.37231445 C-80.96260983 756.37504276 -80.06657708 756.37777106 -79.14339183 756.38058204 C-66.66518655 756.41851635 -54.18697763 756.45488557 -41.70876397 756.48994906 C-34.75276533 756.50952107 -27.79676738 756.5293399 -20.84076962 756.54922339 C-19.1097555 756.55416801 -17.37874135 756.55910075 -15.64772716 756.56402162 C4.00623677 756.6199561 23.66013481 756.68287094 43.31399536 756.76815796 C44.14521686 756.77174473 44.97643836 756.77533151 45.83284838 756.77902697 C53.26593671 756.81111561 60.69902418 756.84337974 68.13210511 756.87714267 C86.25256321 756.95911018 104.37229234 757.01242408 122.49294096 756.98855132 C132.80194075 756.97523205 143.1107502 756.98568741 153.41972154 757.01646501 C160.29815858 757.03536048 167.17542317 757.02195062 174.05375719 756.98205709 C178.17871153 756.96643413 182.30301598 756.98367664 186.42788911 757.0109508 C188.29548138 757.01672127 190.16317676 757.00899211 192.0306375 756.98608899 C201.84818481 756.87230641 208.77263116 756.8915074 216.34231281 763.94266415 C218 766 218 766 219.3125 769.5 C217.10435894 775.38837617 212.23100478 777.88637504 207 781 C206.40509766 781.35852051 205.81019531 781.71704102 205.19726562 782.08642578 C190.14457868 790.9851276 173.54794013 796.56379653 157 802 C157.55162407 807.27225311 160.19627247 811.40696383 162.75 815.9375 C163.2344458 816.80632813 163.7188916 817.67515625 164.21801758 818.5703125 C177.76963088 843.16250874 177.76963088 843.16250874 194 866 C204.21979758 863.70683205 214.04601575 860.46114099 223.9375 857.0625 C224.76648804 856.77887604 225.59547607 856.49525208 226.44958496 856.20303345 C242.26027057 850.77642675 257.67012013 844.66851015 273 838 C273.89605957 837.61473145 274.79211914 837.22946289 275.71533203 836.83251953 C303.33756059 824.949851 329.77781518 810.3505396 355.61083984 795.01025391 C358.79758136 793.12006304 361.98903393 791.23814863 365.18209839 789.3586731 C368.0924186 787.64484455 371.00073882 785.92764349 373.90856934 784.20959473 C375.32856982 783.37095347 376.7490507 782.53312502 378.17004395 781.69616699 C380.1686657 780.51810071 382.16470505 779.33577056 384.16015625 778.15234375 C384.74775223 777.80701096 385.33534821 777.46167816 385.94075012 777.10588074 C387.64130978 776.09398613 389.32082222 775.04699371 391 774 C391.6379248 773.63013474 392.27584961 773.26026947 392.93310547 772.87919617 C396.35311685 770.73805319 397.7695836 769.69078107 399.08154297 765.75756836 C399.17580566 764.48534424 399.27006836 763.21312012 399.3671875 761.90234375 C399.42727997 761.17716049 399.48737244 760.45197723 399.54928589 759.70481873 C399.74358928 757.13746378 399.87641598 754.5717164 400 752 C400.07933777 750.49919891 400.07933777 750.49919891 400.16027832 748.96807861 C400.51485827 742.05009514 400.77883744 735.13102352 401.00537109 728.20776367 C401.12467387 724.57243755 401.25482624 720.93762336 401.38671875 717.30273438 C401.8370905 704.53002377 402.147058 691.78030944 402 679 C401.9892041 677.84491943 401.9784082 676.68983887 401.96728516 675.49975586 C401.43505898 636.81606945 396.13833149 597.66118254 388.8137207 559.70507812 C387.26192434 551.62118702 385.94743468 543.51877487 384.75 535.375 C384.58685303 534.26632568 384.42370605 533.15765137 384.25561523 532.01538086 C383.82228885 529.01207615 383.40665347 526.00701902 383 523 C382.89324951 522.25532471 382.78649902 521.51064941 382.67651367 520.7434082 C380.46748209 503.7694692 380.92555314 484.82111153 384 468 C384.17740723 466.95779297 384.17740723 466.95779297 384.35839844 465.89453125 C394.67810037 405.70939938 416.41682026 345.68656459 436.91009521 288.2953949 C440.45480918 278.36789324 443.98872997 268.43834761 447.36102295 258.45068359 C447.97483211 256.63687136 448.59781864 254.82617268 449.22119141 253.015625 C452.37559337 243.58770324 453.17763885 235.0713842 453.125 225.1875 C453.12209961 223.84619019 453.12209961 223.84619019 453.11914062 222.4777832 C453.05924187 212.96968714 452.57078021 203.48922107 452 194 C451.34 194 450.68 194 450 194 C449.70343506 194.96075439 449.40687012 195.92150879 449.10131836 196.91137695 C430.91257774 255.73868324 406.78569304 313.82152606 370.125 363.71484375 C359.04120843 378.83067545 348.83179891 394.66874112 342.10742188 412.24780273 C341 414 341 414 338.87695312 414.75024414 C338.25755859 414.83266357 337.63816406 414.91508301 337 415 C336.73832031 414.31421875 336.47664062 413.6284375 336.20703125 412.921875 C333.89808751 407.33258723 331.05647196 401.98633665 328.31591797 396.59912109 C327.38683244 394.76404789 326.46463043 392.92548178 325.54736328 391.08447266 C319.00547908 377.96138259 312.21877354 365.57602533 303.38916016 353.85400391 C300.78762036 350.38193129 298.28133172 346.83938575 295.80151367 343.27954102 C293.60653979 340.15085461 291.32948715 337.17677423 288.8515625 334.265625 C280.34559449 323.90707511 278.3502696 314.78602756 276.83203125 301.6171875 C274.50695834 281.46655564 266.8363709 262.17249597 259.99365234 243.21142578 C254.89490986 229.02555621 251.5266709 214.85985275 249 200 C248.86722656 199.25927246 248.73445312 198.51854492 248.59765625 197.75537109 C244.40086839 173.6886789 244.94507931 145.28590897 252.546875 121.99609375 C253.22455414 119.80967018 253.22455414 119.80967018 252 117 C233.9956481 153.97570311 221.41972132 192.6637641 219 234 C218.91758057 235.33562988 218.91758057 235.33562988 218.83349609 236.69824219 C218.51432894 242.02522666 218.26113674 247.35114886 218.07910156 252.68457031 C218.00868304 254.74583355 217.92335741 256.8065753 217.8359375 258.8671875 C217.59000003 268.72704441 218.30295573 280.13230435 223 289 C223.125 291.75 223.125 291.75 223 294 C218.46040136 293.41292409 214.75585546 292.18808086 210.5625 290.375 C193.60902955 283.40135162 175.82679233 279.09840765 158.0625 274.75 C157.18958313 274.53549194 156.31666626 274.32098389 155.41729736 274.09997559 C146.64457012 271.95238525 137.85940785 269.88271606 128.99609375 268.140625 C127.73853271 267.89344727 126.48097168 267.64626953 125.18530273 267.39160156 C122.31528845 267.03876161 120.63529279 266.88678938 118 268 C116.18725735 270.19584016 116.18725735 270.19584016 114.5625 273.125 C114.23685059 273.67470459 113.91120117 274.22440918 113.57568359 274.79077148 C112.3658837 276.85060491 111.18205788 278.92411682 110 281 C109.47035645 281.92538574 108.94071289 282.85077148 108.39501953 283.80419922 C102.63794266 293.86864412 102.63794266 293.86864412 97 304 C96.61312012 304.7005249 96.22624023 305.4010498 95.82763672 306.12280273 C94.79828977 308.11558257 94.79828977 308.11558257 95 311 C90.68947164 312.06578998 87.30777075 312.14873887 83 311 C65.31281446 298.48160767 56.22316724 275.43325008 52 255 C49.93847798 242.23048269 49.68084188 229.59357654 49.75 216.6875 C49.75265869 215.24525055 49.75265869 215.24525055 49.75537109 213.77386475 C49.78310419 200.90170598 50.17915805 188.15934064 51.28369141 175.32983398 C52.17422395 164.87530284 52.19257213 154.48448245 52 144 C50.18538599 147.51848808 48.91912467 151.06738163 47.625 154.8125 C45.04122853 162.04570337 41.60822775 168.63965311 37.9375 175.375 C30.08756523 189.93700668 25.91168203 204.05441767 26.0234375 220.6796875 C26.02835205 221.52345947 26.0332666 222.36723145 26.03833008 223.23657227 C26.05409673 224.91691549 26.08201066 226.5972016 26.1237793 228.27709961 C26.19555127 232.948058 25.8063264 236.60106394 24 241 C23.01 241 22.02 241 21 241 C18.78651324 232.7363161 18.32255769 224.5045604 18 216 C17.95746094 214.94554687 17.91492188 213.89109375 17.87109375 212.8046875 C17.53326966 194.83244583 19.81338999 176.78197922 21.52172852 158.9140625 C25.72297156 114.96347251 24.76137761 75.32079689 10 33 C9.67 33 9.34 33 9 33 Z " fill="#000000" transform="translate(639,232)"/>
<path d="M0 0 C0.90637207 0.43481689 0.90637207 0.43481689 1.83105469 0.87841797 C21.68802672 10.70375088 35.79133873 28.24779332 43 49 C48.66361833 69.22720832 48.05044886 92.87627758 39 112 C38.60296875 112.92941406 38.2059375 113.85882812 37.796875 114.81640625 C28.98889705 134.22939213 12.32662749 147.34020545 -7.27392578 154.87402344 C-14.09427219 157.18363138 -20.58559832 157.54037317 -27.75 157.5 C-28.89726563 157.49572998 -30.04453125 157.49145996 -31.2265625 157.48706055 C-40.11446036 157.30882393 -46.98941805 156.01081551 -55 152 C-55.90363281 151.60425781 -56.80726563 151.20851563 -57.73828125 150.80078125 C-73.21835277 143.73021748 -85.54293738 130.53091135 -93.0625 115.4375 C-93.40611572 114.74857666 -93.74973145 114.05965332 -94.10375977 113.34985352 C-104.03037217 92.79246332 -104.64564629 69.09810015 -97.8984375 47.46875 C-93.61019816 35.62767621 -87.0886877 26.54435135 -79 17 C-78.08270538 15.833827 -77.16590086 14.66726797 -76.25 13.5 C-73.96763971 10.96404412 -71.96736979 9.63205338 -69 8 C-68.28457031 7.38640625 -67.56914063 6.7728125 -66.83203125 6.140625 C-63.46009056 3.59190294 -60.05833188 2.02092287 -56.1875 0.375 C-55.51396484 0.0759375 -54.84042969 -0.223125 -54.14648438 -0.53125 C-37.52234391 -7.72178731 -16.36901472 -7.95872785 0 0 Z " fill="#FDFDFD" transform="translate(802,754)"/>
<path d="M0 0 C18.22610618 12.85337558 29.60641533 31.89917175 33.9765625 53.5703125 C37.07595629 76.59438069 33.17525916 100.07833579 19.72265625 119.3203125 C8.12951914 134.30941906 -7.15475186 147.35243585 -26.3984375 150.6328125 C-47.02667169 152.49601944 -65.70894078 150.02053544 -82.046875 136.4296875 C-84.54958739 134.21320908 -86.985586 131.94638747 -89.3984375 129.6328125 C-90.3059375 128.7871875 -91.2134375 127.9415625 -92.1484375 127.0703125 C-95.1908184 123.77439986 -97.82945969 120.30651614 -100.3984375 116.6328125 C-100.89472656 115.94960938 -101.39101563 115.26640625 -101.90234375 114.5625 C-105.57098254 109.06433116 -107.71012987 103.32283636 -109.7109375 97.0703125 C-110.09282227 95.88344849 -110.09282227 95.88344849 -110.48242188 94.67260742 C-116.96964413 73.34829477 -114.2824501 47.68978133 -103.8671875 28.09765625 C-98.76970437 19.54310345 -92.60705955 12.45754343 -85.3984375 5.6328125 C-84.91890625 5.12492188 -84.439375 4.61703125 -83.9453125 4.09375 C-61.30980764 -17.28422681 -24.78508961 -16.36670573 0 0 Z " fill="#FDFDFD" transform="translate(545.3984375,760.3671875)"/>
<path d="M0 0 C6.04824353 5.546368 9.09713124 12.0076528 9.45703125 20.2109375 C9.45834338 22.26441538 9.43849144 24.31800612 9.3984375 26.37109375 C9.40552734 27.39138672 9.41261719 28.41167969 9.41992188 29.46289062 C9.29533636 44.48023698 3.16825473 56.58047086 -7.0390625 67.43359375 C-15.34842104 74.90220775 -24.41190227 77.85900489 -35.5390625 77.43359375 C-48.24797683 76.00801147 -61.46196293 69.25990209 -69.8203125 59.5 C-73.63893233 53.02548111 -74.56728233 47.18547351 -74.4765625 39.80859375 C-74.46826416 38.93340088 -74.45996582 38.05820801 -74.45141602 37.15649414 C-74.10966783 23.88425959 -70.21272504 12.28070216 -61.125 2.33984375 C-45.56877302 -12.28672823 -16.78387298 -12.89335836 0 0 Z " fill="#353535" transform="translate(418.0390625,272.56640625)"/>
<path d="M0 0 C6.50508819 6.16756003 10.15837075 14.7736109 10.5234375 23.640625 C10.54721529 25.63531745 10.55993265 27.63016749 10.5625 29.625 C10.58699219 30.61113281 10.61148438 31.59726562 10.63671875 32.61328125 C10.66911045 40.80838017 9.11423919 47.83210519 3.8125 54.25 C-4.63308944 61.08690574 -11.60586092 62.65638455 -22.1875 63.125 C-23.08210938 63.18042969 -23.97671875 63.23585938 -24.8984375 63.29296875 C-36.27040647 63.83842656 -45.27824514 61.19821024 -53.89453125 53.51953125 C-60.03438702 47.04359917 -61.92859819 40.76087382 -62.1875 31.9375 C-61.88527612 21.12040377 -58.64681614 12.03048652 -50.7734375 4.3984375 C-37.64669908 -6.50185765 -14.42007415 -11.16392837 0 0 Z " fill="#353535" transform="translate(272.8125,469.625)"/>
<path d="M0 0 C2.62109375 1.81640625 2.62109375 1.81640625 4.5625 3.4375 C4.5625 4.0975 4.5625 4.7575 4.5625 5.4375 C5.2225 5.4375 5.8825 5.4375 6.5625 5.4375 C7.81640625 7.08203125 7.81640625 7.08203125 9.125 9.25 C9.55941406 9.95769531 9.99382813 10.66539062 10.44140625 11.39453125 C14.02001421 17.91582729 13.4209795 26.39850909 11.9140625 33.48828125 C8.27358957 44.48748792 0.60937919 53.26762673 -9.69140625 58.60546875 C-16.65331347 60.71483751 -27.28306479 60.95949676 -34.0625 57.9375 C-41.20750297 53.32368642 -45.40010803 47.00954686 -47.78125 38.921875 C-49.52705571 29.65247801 -50.33080036 17.81893 -45.4375 9.4375 C-40.23676193 1.85309031 -33.22533824 -3.41759543 -24.41015625 -6.203125 C-14.61893325 -7.98687256 -8.00640277 -5.39000467 0 0 Z " fill="#353535" transform="translate(551.4375,361.5625)"/>
<path d="M0 0 C6.94249323 5.71445787 10.15828803 14.63962374 11.51953125 23.30859375 C11.98932281 32.40943947 9.29387157 40.15056172 3.21875 47.01171875 C-3.12849774 52.76043216 -9.07774256 53.44342218 -17.484375 53.3203125 C-22.3191546 52.87981036 -25.87192916 51.4751472 -30 49 C-31.134375 48.34 -32.26875 47.68 -33.4375 47 C-36.06462589 44.94956028 -36.66560439 43.93244196 -38 41 C-38.51240234 39.99259766 -38.51240234 39.99259766 -39.03515625 38.96484375 C-39.54369141 37.96130859 -39.54369141 37.96130859 -40.0625 36.9375 C-40.57490234 35.93009766 -40.57490234 35.93009766 -41.09765625 34.90234375 C-44.36993735 28.00363857 -44.2966563 17.58591267 -41.75 10.375 C-37.55124596 2.27740293 -32.18443168 -0.90060262 -23.6640625 -3.79296875 C-15.21896643 -6.0005465 -7.24782385 -4.99055667 0 0 Z " fill="#010101" transform="translate(997,281)"/>
<path d="M0 0 C6.04824353 5.546368 9.09713124 12.0076528 9.45703125 20.2109375 C9.45834338 22.26441538 9.43849144 24.31800612 9.3984375 26.37109375 C9.40552734 27.39138672 9.41261719 28.41167969 9.41992188 29.46289062 C9.29533636 44.48023698 3.16825473 56.58047086 -7.0390625 67.43359375 C-15.34842104 74.90220775 -24.41190227 77.85900489 -35.5390625 77.43359375 C-48.24797683 76.00801147 -61.46196293 69.25990209 -69.8203125 59.5 C-73.63893233 53.02548111 -74.56728233 47.18547351 -74.4765625 39.80859375 C-74.46826416 38.93340088 -74.45996582 38.05820801 -74.45141602 37.15649414 C-74.10966783 23.88425959 -70.21272504 12.28070216 -61.125 2.33984375 C-45.56877302 -12.28672823 -16.78387298 -12.89335836 0 0 Z M-58.6953125 12.44921875 C-65.83558973 22.99358164 -68.28372985 33.775062 -67.0390625 46.43359375 C-65.4624782 52.28073165 -62.88320925 56.21322017 -57.9140625 59.68359375 C-56.29645918 60.61325083 -54.67107634 61.52947341 -53.0390625 62.43359375 C-52.22566406 62.99304688 -51.41226562 63.5525 -50.57421875 64.12890625 C-41.71162826 69.85960386 -32.54867671 69.82554317 -22.3671875 67.6484375 C-11.90146019 63.82820136 -5.30688422 53.3777149 -0.7578125 43.7109375 C2.53026127 35.54946868 4.51748938 25.9821527 1.80859375 17.37109375 C-1.38910756 10.06206219 -5.61066289 4.60122235 -13.0390625 1.43359375 C-29.73185907 -4.12317276 -47.1569559 -2.03782898 -58.6953125 12.44921875 Z " fill="#000000" transform="translate(418.0390625,272.56640625)"/>
<path d="M0 0 C0.87205078 0.00128906 1.74410156 0.00257813 2.64257812 0.00390625 C7.36920298 0.06831143 11.63082691 0.23155627 15.9375 2.375 C18.22570738 5.41298406 19.51867455 8.8573837 20.9375 12.375 C21.370625 13.4475 21.80375 14.52 22.25 15.625 C23.7598066 23.86030874 24.58627648 33.09191685 19.9375 40.375 C14.46825355 45.9685475 9.20224333 47.43177637 1.5625 47.6875 C-5.12352958 47.54075587 -11.01108227 46.16481467 -16.4375 42.125 C-21.72135672 36.58953105 -22.62421559 30.93243478 -22.5625 23.5625 C-22.55677979 22.77149902 -22.55105957 21.98049805 -22.54516602 21.16552734 C-22.35394959 14.88822036 -21.44144206 9.16777614 -17.0625 4.375 C-11.36758285 0.20940843 -6.93687973 -0.1956952 0 0 Z " fill="#000000" transform="translate(795.0625,362.625)"/>
<path d="M0 0 C3.8123426 3.4795945 5.83459663 6.86602536 6.23828125 12.07421875 C6.38905157 19.41435268 6.31156322 24.92396867 2 31 C0.948125 32.5778125 0.948125 32.5778125 -0.125 34.1875 C-4.06610063 38.600082 -9.59366877 41.35358401 -15.3671875 42.44921875 C-20.95523144 42.72958774 -25.45127023 41.22781043 -30 38 C-34.5579848 33.77750139 -36.80873985 29.40192941 -37.30078125 23.22265625 C-37.31526666 21.83600766 -37.31893783 20.44920931 -37.3125 19.0625 C-37.32861328 18.37220703 -37.34472656 17.68191406 -37.36132812 16.97070312 C-37.36728013 10.69133696 -35.73091266 6.77212487 -31.375 2.3125 C-22.80600638 -4.2142519 -9.36712285 -5.73497317 0 0 Z " fill="#000000" transform="translate(593,219)"/>
<path d="M0 0 C6.50508819 6.16756003 10.15837075 14.7736109 10.5234375 23.640625 C10.54721529 25.63531745 10.55993265 27.63016749 10.5625 29.625 C10.58699219 30.61113281 10.61148438 31.59726562 10.63671875 32.61328125 C10.66911045 40.80838017 9.11423919 47.83210519 3.8125 54.25 C-4.63308944 61.08690574 -11.60586092 62.65638455 -22.1875 63.125 C-23.08210938 63.18042969 -23.97671875 63.23585938 -24.8984375 63.29296875 C-36.27040647 63.83842656 -45.27824514 61.19821024 -53.89453125 53.51953125 C-60.03438702 47.04359917 -61.92859819 40.76087382 -62.1875 31.9375 C-61.88527612 21.12040377 -58.64681614 12.03048652 -50.7734375 4.3984375 C-37.64669908 -6.50185765 -14.42007415 -11.16392837 0 0 Z M-48.125 13.625 C-53.20261734 20.03213274 -55.72879151 27.25927515 -54.8125 35.375 C-53.44352219 41.02993143 -51.29009248 44.53706359 -46.8125 48.375 C-45.69875 49.426875 -45.69875 49.426875 -44.5625 50.5 C-35.70480914 56.53933468 -25.17272944 56.38974987 -14.8125 55.375 C-9.07255788 54.25242829 -5.14324602 52.25729669 -1.375 47.75 C2.8131025 41.3788639 5.00344125 33.99045166 4.1875 26.375 C2.16777462 16.87133096 -1.655352 8.92186064 -9.8125 3.375 C-23.64246807 -2.10479867 -38.23374298 3.11399003 -48.125 13.625 Z " fill="#000000" transform="translate(272.8125,469.625)"/>
<path d="M0 0 C2.62109375 1.81640625 2.62109375 1.81640625 4.5625 3.4375 C4.5625 4.0975 4.5625 4.7575 4.5625 5.4375 C5.2225 5.4375 5.8825 5.4375 6.5625 5.4375 C7.81640625 7.08203125 7.81640625 7.08203125 9.125 9.25 C9.55941406 9.95769531 9.99382813 10.66539062 10.44140625 11.39453125 C14.02001421 17.91582729 13.4209795 26.39850909 11.9140625 33.48828125 C8.27358957 44.48748792 0.60937919 53.26762673 -9.69140625 58.60546875 C-16.65331347 60.71483751 -27.28306479 60.95949676 -34.0625 57.9375 C-41.20750297 53.32368642 -45.40010803 47.00954686 -47.78125 38.921875 C-49.52705571 29.65247801 -50.33080036 17.81893 -45.4375 9.4375 C-40.23676193 1.85309031 -33.22533824 -3.41759543 -24.41015625 -6.203125 C-14.61893325 -7.98687256 -8.00640277 -5.39000467 0 0 Z M-33.921875 8.6328125 C-40.0037052 15.18076837 -41.95196242 20.59530125 -41.74609375 29.49609375 C-40.90822424 37.48236891 -38.09274767 43.63750841 -32.21875 49.09765625 C-27.68967495 52.50439472 -23.91279906 52.99769626 -18.3125 52.87109375 C-10.60707332 51.70899815 -4.99685103 45.59818137 -0.16796875 39.86328125 C4.24016439 33.68393435 6.76247188 26.99732287 5.5625 19.4375 C2.08651062 10.96762195 -5.63373609 5.6803231 -13.4375 1.4375 C-21.28433507 -0.88225844 -28.09188412 3.48115389 -33.921875 8.6328125 Z " fill="#000000" transform="translate(551.4375,361.5625)"/>
<path d="M0 0 C5.284298 3.89769821 8.3328367 11.60530873 9.50390625 17.98828125 C9.40869932 23.79590418 8.46715259 28.31506039 4.73828125 32.890625 C1.05269176 36.43836764 -2.27690207 38.81847486 -7.48828125 38.9921875 C-13.8640407 38.40273049 -18.16816909 36.67607714 -22.49609375 31.86328125 C-27.40670177 25.838209 -29.02641796 20.14610596 -28.34765625 12.390625 C-27.41897134 7.14267917 -26.05048572 3.98253806 -21.55859375 0.80078125 C-14.37255266 -2.41534903 -7.26344723 -3.40439435 0 0 Z " fill="#353535" transform="translate(990.55859375,287.19921875)"/>
<path d="M0 0 C3.19383664 2.22450101 6.23838837 4.47677673 8 8 C8.17778623 10.59975932 8.27753022 13.14824807 8.3125 15.75 C8.34150391 16.45382812 8.37050781 17.15765625 8.40039062 17.8828125 C8.46270481 23.04050995 7.4142545 25.92706631 4 30 C-0.61935793 33.77213945 -5.78375525 34.60294125 -11.6171875 34.30859375 C-18.67271072 33.39484566 -22.25481113 30.0923014 -26.6171875 24.83984375 C-29.33327592 21.2260651 -29.216668 18.05815796 -29.25 13.6875 C-29.27578125 12.37136719 -29.3015625 11.05523437 -29.328125 9.69921875 C-28.98616598 5.84403792 -28.32969032 4.03582558 -26 1 C-18.91931228 -4.26512676 -7.88862185 -2.94152001 0 0 Z " fill="#000000" transform="translate(985,482)"/>
<path d="M0 0 C1.13308594 -0.00515625 2.26617188 -0.0103125 3.43359375 -0.015625 C6.45754523 0.24108998 8.09178777 0.54123077 10.5625 2.25 C12.06260651 4.58840132 13.34105416 6.78008519 14.5625 9.25 C14.975 10.03375 15.3875 10.8175 15.8125 11.625 C17.3158501 16.88672537 17.46082755 22.11610353 15.0625 27.125 C12.90508085 30.36867215 10.54579319 31.77380146 6.83984375 32.87109375 C1.75595727 33.71695479 -3.0241384 33.65890539 -7.55859375 31.01171875 C-11.8962664 27.52174096 -14.0121506 24.24535527 -14.80859375 18.63671875 C-14.97374359 11.9238634 -13.97360822 7.34833008 -9.4375 2.25 C-5.87784019 -0.12310654 -4.21787776 -0.01915041 0 0 Z " fill="#353535" transform="translate(794.4375,369.75)"/>
<path d="M0 0 C4.0934378 3.25804233 5.80263399 5.39287678 6.4375 10.5625 C6.37698549 16.09957729 3.45040801 19.8757476 0 24 C-3.38272877 27.07520798 -5.64467701 28.81397528 -10.1875 29.4375 C-15.2882526 28.85216773 -17.66139088 26.77172598 -21 23 C-23.59837833 18.82000007 -23.92587107 13.78503278 -23 9 C-20.74601637 4.82892709 -17.74711498 2.45976307 -13.75 0 C-8.90517693 -1.29195282 -4.84167919 -1.36812255 0 0 Z " fill="#353535" transform="translate(586,224)"/>
<path d="M0 0 C4.07175342 2.27106824 6.46799187 4.65597945 8.1875 9 C7.93363324 13.06186821 6.60756546 14.91209354 4 18 C0.92138622 20.57937911 -0.45307058 21.0097666 -4.5 20.9375 C-9.31617461 19.64745323 -11.72393964 17.58407494 -14.8125 13.75 C-16.54991196 9.72651967 -16.62625913 7.38381394 -16 3 C-11.40542839 -1.95730094 -6.13247473 -1.82813521 0 0 Z " fill="#343434" transform="translate(979,488)"/>
<path d="M0 0 C6.94249323 5.71445787 10.15828803 14.63962374 11.51953125 23.30859375 C11.98932281 32.40943947 9.29387157 40.15056172 3.21875 47.01171875 C-3.12849774 52.76043216 -9.07774256 53.44342218 -17.484375 53.3203125 C-22.3191546 52.87981036 -25.87192916 51.4751472 -30 49 C-31.134375 48.34 -32.26875 47.68 -33.4375 47 C-36.06462589 44.94956028 -36.66560439 43.93244196 -38 41 C-38.51240234 39.99259766 -38.51240234 39.99259766 -39.03515625 38.96484375 C-39.54369141 37.96130859 -39.54369141 37.96130859 -40.0625 36.9375 C-40.57490234 35.93009766 -40.57490234 35.93009766 -41.09765625 34.90234375 C-44.36993735 28.00363857 -44.2966563 17.58591267 -41.75 10.375 C-37.55124596 2.27740293 -32.18443168 -0.90060262 -23.6640625 -3.79296875 C-15.21896643 -6.0005465 -7.24782385 -4.99055667 0 0 Z M-36.6328125 5.14453125 C-40.48580719 10.37359547 -41.53534317 15.47744346 -41.4375 21.875 C-41.42920166 22.57753906 -41.42090332 23.28007812 -41.41235352 24.00390625 C-41.12337563 32.90565922 -37.934025 38.8625412 -31.90625 45.2734375 C-26.61094188 50.06959773 -20.88600139 51.76983511 -13.8046875 52.15234375 C-6.92436283 51.77862138 -1.72845465 49.21538404 2.9375 44.1875 C9.19718011 36.11192212 10.14429726 29.15700045 9 19 C6.98619828 11.37440416 3.64148892 4.533711 -3 0 C-14.12723276 -5.39855272 -27.38319713 -3.02676109 -36.6328125 5.14453125 Z " fill="#323232" transform="translate(997,281)"/>
</svg>
